<svg
   role="img"
   viewBox="0 0 4.2333332 4.2333335"
   xmlns:cc="http://creativecommons.org/ns#"
   xmlns:rdf="http://www.w3.org/1999/02/22-rdf-syntax-ns#"
   xmlns:svg="http://www.w3.org/2000/svg"
   xmlns="http://www.w3.org/2000/svg"
  <title>Codeberg icon</title>
  <defs
     id="defs1462">
    <linearGradient
       xlink:href="#linearGradient6924"
       id="linearGradient6918"
       x1="42519.285"
       y1="-7078.7891"
       x2="42575.336"
       y2="-6966.9307"
       gradientUnits="userSpaceOnUse"
       gradientTransform="matrix(0.02417365,0,0,0.02417365,-980.82243,248.23174)" />
    <linearGradient
       id="linearGradient6924">
      <stop
         style="stop-color:#2185d0;stop-opacity:0"
         offset="0"
         id="stop6920" />
      <stop
         id="stop6926"
         offset="0.49517274"
         style="stop-color:#2185d0;stop-opacity:0.48923996" />
      <stop
         style="stop-color:#2185d0;stop-opacity:0.63279623"
         offset="1"
         id="stop6922" />
    </linearGradient>
    <filter
       style="color-interpolation-filters:sRGB;"
       id="filter847">
      <feColorMatrix
         values="-10 -10 -10 0 0 -10 -10 -10 0 0 -10 -10 -10 0 0 0 0 0 1 0 "
         id="feColorMatrix845" />
    </filter>
    <filter
       style="color-interpolation-filters:sRGB;"
       id="filter851">
      <feColorMatrix
         values="-10 -10 -10 0 0 -10 -10 -10 0 0 -10 -10 -10 0 0 0 0 0 1 0 "
         id="feColorMatrix849" />
    </filter>
  </defs>
  <g
     id="layer1"
     transform="translate(-44.867463,-75.990641)">
    <path
       d="m 47.023884,77.11157 a 0.01839298,0.01372862 0 0 0 -0.01784,0.01629 l 0.811896,3.043187 a 2.1075158,2.1075158 0 0 0 0.951982,-0.816189 l -1.729987,-2.236536 a 0.01839298,0.01372862 0 0 0 -0.01605,-0.0068 z"
       style="font-variation-settings:normal;opacity:0.5;vector-effect:none;fill:url(#linearGradient6918);fill-opacity:1;stroke:none;stroke-width:0.0889218;stroke-linecap:butt;stroke-linejoin:miter;stroke-miterlimit:2;stroke-dasharray:none;stroke-dashoffset:0;stroke-opacity:1;paint-order:stroke markers fill;stop-color:#000000;filter:url(#filter851)"
       id="path6733" />
    <path
       d="m 46.976383,76.12791 a 2.1075158,2.1075158 0 0 0 -2.099603,2.1075 2.1075158,2.1075158 0 0 0 0.3218,1.119354 l 1.757134,-2.271663 a 0.03290029,0.02455696 0 0 1 0.05703,0 l 1.757231,2.271757 a 2.1075158,2.1075158 0 0 0 0.321848,-1.119448 2.1075158,2.1075158 0 0 0 -2.107507,-2.1075 2.1075158,2.1075158 0 0 0 -0.0079,0 z"
       style="fill:#2185d0;fill-opacity:1;stroke:none;stroke-width:0.0486985px;stroke-opacity:1;paint-order:stroke markers fill;stop-color:#000000;filter:url(#filter847)"
       id="circle6810" />
  </g>
</svg>
